<svg clip-rule="evenodd" fill-rule="evenodd" stroke-linecap="round" stroke-linejoin="round" viewBox="0 0 64 64" xmlns="http://www.w3.org/2000/svg"><g fill="none"><path d="m0-.0003h64v64h-64z"/><path d="m14.094 24.468c-1.346-5.039 7.654-8.503 15.731-9.573l.789-1.454 3.184 3.87-1.747.284c-.855 2.809-5.135 6.873-5.135 6.873" stroke="#c44d58" transform="matrix(1.45395637634 0 0 1.5005292044 -2.95016380938 -4.8531017235)"/><path d="m15.509 24.468c.289-2.594 3.297-5.514 14.773-9.019" stroke="#c44d58" transform="matrix(1.5520481424 0 0 1.6083103254 -4.46304442376 -7.4902948624)"/><path d="m30.578 15.809c-4.34 2.175-9.4 4.673-12.946 8.659" stroke="#c44d58" transform="matrix(1.616424923 0 0 1.5763919352 -5.7946177818 -6.7093961948)"/><path d="m31.425 16.837c-4.509 6.126-7.425 7.631-7.425 7.631" stroke="#c44d58" transform="matrix(1.676481702 0 0 1.5739400424 -8.2353603074 -6.6493248212)"/><path d="m21.505 24.468c2.719-1.589 9.489-8.154 9.489-8.154" stroke="#c44d58" transform="matrix(1.6484454754 0 0 1.6121049214 -7.0912458296 -7.5830435454)"/></g><g stroke="#167bba" transform="matrix(1.45946 0 0 1.45946 -1.0269997998 -5.8483002002)"><path d="m33.077 16.453 8.151-6.605c.563-.457.649-1.282.193-1.845s-1.282-.649-1.844-.193l-8.152 6.605" fill="#fff" stroke-width="1.37"/><path d="m29.825 14.895c1.201.506 1.879 1.46 2.226 2.7" fill="#167bba" stroke-width="2"/></g><g stroke="#167bba" transform="matrix(1.45946 0 0 1.45946 -3.027 -3.8483)"><path d="m24 24.468h-18.5c0 9.216 11.597 17.14 11.597 17.14h6.903" fill="#8fcceb" stroke-width="3"/><path d="m24 24.468h18.5c0 9.216-11.597 17.14-11.597 17.14h-6.903" fill="#8fcceb" stroke-width="3"/><path d="m10.884 26.574c0 6.792 7.628 11.804 7.628 11.804" fill="#167bba" stroke-width=".69"/></g></svg>